<?xml version="1.0" encoding="iso-8859-1"?>
<!-- Generator: Adobe Illustrator 16.0.0, SVG Export Plug-In . SVG Version: 6.00 Build 0)  -->
<!DOCTYPE svg PUBLIC "-//W3C//DTD SVG 1.1//EN" "http://www.w3.org/Graphics/SVG/1.1/DTD/svg11.dtd">
<svg version="1.1" id="Capa_1" xmlns="http://www.w3.org/2000/svg" xmlns:xlink="http://www.w3.org/1999/xlink" x="0px" y="0px"
	 width="568.781px" height="568.781px" viewBox="0 0 568.781 568.781" style="enable-background:new 0 0 568.781 568.781;"
	 xml:space="preserve">
<g>
	<g>
		<path d="M18.751,334.063h177.37v16.451h-43.152c0,0.006,0.006,0.006,0.006,0.012c4.437,8.098,22.313,15.367,33.33,18.348h91.524
			c2.246-3.25,4.816-6.346,7.626-9.18c3.585-3.617,7.515-6.75,11.542-9.18c5.354-3.225,10.85-5.215,15.898-5.215
			c1.885,0,3.709,0.258,5.424,0.754c1.18,0.342,2.594,0.52,4.203,0.52c11.207,0,27.871-8.434,33.348-11.678l0.191-0.109l0.189-0.098
			c0.361-0.184,0.789-0.428,1.168-0.631c4.535-2.375,10.129-5.838,15.246-9.779c6.303-4.854,11.779-10.35,13.207-15.232
			c0.152-0.533,0.379-1.035,0.58-1.549H44.021c-9.37,0-16.964-6.982-16.964-15.594V60.58c0-8.611,7.595-15.594,16.964-15.594
			h480.745c9.369,0,16.965,6.983,16.965,15.594v231.33c0,8.611-7.596,15.594-16.965,15.594h-53.807
			c8.279,7.137,17.473,16.133,26.395,26.566h52.676c10.355,0,18.752-8.396,18.752-18.75V37.17c0-10.355-8.396-18.751-18.752-18.751
			H18.751C8.396,18.419,0,26.815,0,37.17v278.141C0,325.667,8.396,334.063,18.751,334.063z"/>
		<path d="M308.797,502.903c10.668,15.85,19.088,21.773,25.924,21.773c10.711,0,17.535-14.541,23.043-28.236
			c9.02-22.443,7.967-37.143,53.004-61.812c23.551-12.9,38.018-16.652,49.859-16.652c10.803,0,19.42,3.121,30.76,5.258
			c6.566,1.234,13.422,2.338,19.492,2.338c15.918,0,26.457-7.572,12.309-40.123c-8.502-19.555-21.09-37.07-33.893-51.379
			c-9.762-10.91-19.615-19.914-27.908-26.566c-5.838-4.688-10.924-8.23-14.578-10.355c-4.645-2.697-10.998-3.928-17.748-3.928
			c-14.277,0-30.307,5.514-35.789,14.283c-0.654,1.047-1.188,2.131-1.523,3.268c-2.32,7.926-11.164,15.582-19.082,21.104
			c-1.115,0.777-2.197,1.504-3.256,2.189c-5.785,3.758-10.404,6.096-10.404,6.096s-11.402,6.77-23.557,10.355
			c-4.375,1.291-8.844,2.186-12.912,2.186c-2.105,0-4.102-0.232-5.92-0.766c-1.18-0.342-2.422-0.508-3.707-0.508
			c-5.766,0-12.424,3.287-18.508,8.273c-3.244,2.656-6.303,5.797-9.002,9.18c-5.355,6.709-9.174,14.346-9.78,21.109
			c4.198,4.828,7.35,10.078,8.721,15.244c2.792,10.539,5.405,31.807,4.18,56.512C293.461,475.7,300.07,489.929,308.797,502.903z
			 M438.596,334.063c0.691-0.709,1.457-1.363,2.375-1.865c4.105-2.254,9.057-1.342,12.172,1.865
			c0.625,0.643,1.207,1.348,1.658,2.174c2.705,4.932,0.895,11.125-4.039,13.83c-4.932,2.705-11.125,0.895-13.83-4.039
			C434.729,342.009,435.555,337.185,438.596,334.063z M426.656,365.759c4.932-2.705,11.125-0.893,13.83,4.039
			c2.705,4.934,0.895,11.127-4.039,13.832c-4.932,2.705-11.125,0.895-13.83-4.039S421.723,368.464,426.656,365.759z
			 M309.127,419.579l13.006-7.123l-7.125-13.006c-1.016-1.848-0.336-4.174,1.52-5.184l7.654-4.191
			c1.85-1.018,4.174-0.338,5.184,1.512l7.125,13.004l13.004-7.123c1.85-1.016,4.174-0.338,5.184,1.512l4.199,7.656
			c1.016,1.848,0.336,4.174-1.518,5.184l-13.006,7.123l7.125,13.006c1.016,1.848,0.336,4.174-1.512,5.184l-7.656,4.191
			c-1.85,1.016-4.174,0.336-5.184-1.512l-7.125-13.006l-13.004,7.125c-1.85,1.016-4.174,0.336-5.184-1.512l-4.193-7.656
			C306.594,422.915,307.273,420.589,309.127,419.579z"/>
		<path d="M275.657,400.417c-0.937-1.609-2.014-3.213-3.262-4.773c-0.93-1.17-1.964-2.301-3.036-3.422
			c-8.855-9.203-22.075-16.426-32.161-16.426c-2.729,0-5.226,0.527-7.35,1.689c-3.819,2.094-8.88,2.852-14.198,2.852
			c-13.959,0-29.737-5.213-29.737-5.213s-8.507-2.186-17.675-6.25c-8.25-3.658-17.032-8.842-20.63-15.404
			c-0.306-0.557-0.734-1.051-1.126-1.566c-4.614-6.004-14.988-8.947-25.937-8.947c-11.31,0-23.146,3.098-29.639,9.07
			c-13.317,12.246-46.163,54.541-55.576,102.676c-5.673,29.045,1.671,37.436,13.281,37.436c7.625,0,17.093-3.623,25.912-7.381
			c14.565-6.211,23.733-13.127,42.148-13.127c9.718,0,22.013,1.928,39.039,6.896c49.291,14.395,51.427,28.979,65.068,48.947
			c7.663,11.219,16.567,22.889,26.083,22.889c7.43,0,15.239-7.117,23.122-27.123c7.858-19.945,11.34-41.365,12.387-60.619
			c0.165-2.98,0.257-5.898,0.312-8.764c0.074-3.984,0.031-7.797-0.08-11.486c-0.453-15.729-2.332-28.557-4.192-35.57
			C277.854,404.677,276.887,402.54,275.657,400.417z M141.268,413.655l-2.448,8.377c-0.594,2.027-2.711,3.189-4.737,2.596
			l-14.235-4.156l-4.156,14.236c-0.594,2.025-2.711,3.188-4.737,2.594l-8.378-2.447c-2.025-0.594-3.188-2.711-2.595-4.736
			l4.155-14.236l-14.235-4.154c-2.026-0.594-3.188-2.711-2.595-4.738l2.448-8.383c0.594-2.027,2.711-3.189,4.737-2.596l14.235,4.156
			l4.155-14.236c0.594-2.025,2.711-3.188,4.737-2.594l8.378,2.447c2.026,0.594,3.188,2.711,2.595,4.736l-4.155,14.236l14.235,4.154
			C140.699,409.505,141.862,411.63,141.268,413.655z M222.572,453.698c-1.579,5.396-7.234,8.5-12.638,6.922
			c-5.398-1.58-8.501-7.234-6.922-12.639s7.234-8.5,12.632-6.922C221.048,442.64,224.151,448.294,222.572,453.698z M256.422,440.087
			c-1.579,5.398-7.234,8.5-12.632,6.922c-5.398-1.58-8.5-7.234-6.921-12.639c1.579-5.396,7.233-8.5,12.631-6.922
			C254.898,429.028,258.001,434.683,256.422,440.087z"/>
		<polygon points="162.149,88.217 123.63,88.217 186.513,264.143 224.433,264.143 287.438,88.217 249.757,88.217 206.672,218.427 		
			"/>
		<path d="M395.383,230.006c-5.803,4.841-14.42,7.258-25.863,7.258c-10.803,0-19.383-2.717-25.74-8.158
			c-6.359-5.44-10.582-13.959-12.662-25.563l-34.561,3.36c2.32,19.682,9.438,34.664,21.359,44.945
			c11.922,10.281,29.002,15.422,51.242,15.422c15.281,0,28.043-2.142,38.281-6.42s18.164-10.82,23.764-19.621
			c5.6-8.801,8.402-18.244,8.402-28.324c0-11.12-2.338-20.459-7.02-28.023c-4.682-7.558-11.156-13.519-19.443-17.882
			c-8.287-4.364-21.059-8.581-38.342-12.663s-28.164-7.999-32.645-11.763c-3.518-2.962-5.281-6.518-5.281-10.679
			c0-4.56,1.879-8.201,5.643-10.918c5.84-4.241,13.924-6.359,24.242-6.359c10,0,17.502,1.983,22.502,5.942
			c5,3.96,8.264,10.459,9.781,19.499l35.52-1.561c-0.562-16.163-6.42-29.082-17.582-38.764
			c-11.156-9.682-27.779-14.523-49.859-14.523c-13.52,0-25.062,2.038-34.621,6.12c-9.561,4.082-16.879,10.019-21.965,17.821
			c-5.08,7.803-7.619,16.182-7.619,25.141c0,13.923,5.404,25.723,16.199,35.404c7.68,6.879,21.041,12.681,40.08,17.399
			c14.797,3.678,24.283,6.243,28.439,7.681c6.076,2.161,10.336,4.7,12.779,7.62c2.436,2.919,3.658,6.462,3.658,10.618
			C404.086,219.504,401.184,225.165,395.383,230.006z"/>
	</g>
</g>
<g>
</g>
<g>
</g>
<g>
</g>
<g>
</g>
<g>
</g>
<g>
</g>
<g>
</g>
<g>
</g>
<g>
</g>
<g>
</g>
<g>
</g>
<g>
</g>
<g>
</g>
<g>
</g>
<g>
</g>
</svg>
